<?xml version="1.0" encoding="UTF-8" standalone="no"?>
<!-- Created with Inkscape (http://www.inkscape.org/) -->

<svg
   xmlns:dc="http://purl.org/dc/elements/1.1/"
   xmlns:cc="http://creativecommons.org/ns#"
   xmlns:rdf="http://www.w3.org/1999/02/22-rdf-syntax-ns#"
   xmlns:svg="http://www.w3.org/2000/svg"
   xmlns="http://www.w3.org/2000/svg"
   version="1.1"
   width="892.91339"
   height="201.61417"
   id="svg13000">
  <defs
     id="defs13002">
    <clipPath
       id="clipPath12938">
      <path
         d="m 381.26,56.693 178.048,0 0,39.118 -178.048,0 0,-39.118 z"
         id="path12940" />
    </clipPath>
  </defs>
  <metadata
     id="metadata13005">
    <rdf:RDF>
      <cc:Work
         rdf:about="">
        <dc:format>image/svg+xml</dc:format>
        <dc:type
           rdf:resource="http://purl.org/dc/dcmitype/StillImage" />
        <dc:title></dc:title>
      </cc:Work>
    </rdf:RDF>
  </metadata>
  <g
     transform="translate(48.62451,-463.85345)"
     id="layer1">
    <g
       transform="matrix(3.9801907,0,0,3.9801907,-1955.0016,-1254.844)"
       id="g13037">
      <g
         transform="matrix(1.25,0,0,-1.25,3.2815029,552.45505)"
         id="g12934">
        <g
           clip-path="url(#clipPath12938)"
           id="g12936">
          <g
             transform="translate(440.2471,88.186)"
             id="g12942">
            <path
               d="m 0,0 -7.487,-0.41 c -0.169,2.248 -1.423,3.376 -3.761,3.376 -0.959,0 -1.688,-0.205 -2.201,-0.609 -0.512,-0.41 -0.771,-0.892 -0.771,-1.459 0,-0.41 0.211,-0.802 0.621,-1.175 0.409,-0.368 1.386,-0.844 2.929,-1.423 1.959,-0.754 3.545,-1.465 4.768,-2.134 1.224,-0.675 2.225,-1.543 3.002,-2.616 0.778,-1.073 1.17,-2.405 1.17,-4.008 0,-1.507 -0.422,-2.912 -1.266,-4.214 -0.838,-1.296 -2.055,-2.369 -3.635,-3.213 -1.585,-0.838 -3.834,-1.259 -6.757,-1.259 -4.106,0 -7.023,0.789 -8.741,2.363 -1.718,1.579 -2.58,3.604 -2.58,6.076 l 0,0.602 7.523,0.513 c 0,-1.616 0.356,-2.755 1.073,-3.418 0.711,-0.669 1.694,-1.001 2.954,-1.001 1.272,0 2.242,0.277 2.905,0.832 0.669,0.554 1.001,1.182 1.001,1.887 0,0.53 -0.211,1.019 -0.639,1.47 -0.422,0.447 -1.465,0.971 -3.123,1.568 -3.803,1.368 -6.208,2.628 -7.215,3.779 -1.007,1.157 -1.513,2.544 -1.513,4.171 0,1.483 0.416,2.834 1.247,4.063 0.832,1.224 2.038,2.17 3.623,2.851 1.58,0.675 3.478,1.013 5.691,1.013 C -4.177,7.625 -0.446,5.081 0,0"
               id="path12944"
               style="fill:#004429;fill-opacity:1;fill-rule:nonzero;stroke:none" />
          </g>
          <g
             transform="translate(550.1981,82.0555)"
             id="g12946">
            <path
               d="M 0,0 0.849,0 C 2.273,0 3.194,0.064 3.612,0.196 4.03,0.327 4.34,0.55 4.545,0.864 4.749,1.177 4.853,1.477 4.853,1.767 4.853,2.138 4.732,2.428 4.486,2.637 4.243,2.85 3.713,2.954 2.897,2.954 l -2.273,0 L 0,0 z m -3.242,5.889 8.244,0 c 1.42,0 2.46,-0.372 3.119,-1.117 C 8.782,4.027 9.109,3.133 9.109,2.084 9.109,0.951 8.762,-0.037 8.064,-0.884 7.366,-1.73 6.249,-2.273 4.714,-2.509 5.622,-3.247 6.708,-5.278 7.972,-8.596 l -4.731,0 c -0.394,1.049 -0.86,2.192 -1.396,3.433 -0.54,1.241 -0.941,1.963 -1.211,2.158 -0.27,0.199 -0.597,0.297 -0.978,0.297 l -0.239,0 -1.235,-5.888 -4.495,0 3.071,14.485 z m -2.774,0 -0.662,-3.113 -7.352,0 -0.485,-2.304 7.086,0 -0.652,-2.934 -7.076,0 -0.613,-2.833 7.976,0 -0.711,-3.301 -12.441,0 3.091,14.485 11.839,0 z m -13.744,0 -0.741,-3.559 -4.701,0 -2.366,-10.926 -4.494,0 2.354,10.926 -4.497,0 0.75,3.559 13.695,0 z m -14.613,0 -0.742,-3.559 -4.7,0 -2.366,-10.926 -4.494,0 2.354,10.926 -4.497,0 0.75,3.559 13.695,0 z m -15.482,0 -0.662,-3.113 -7.352,0 -0.486,-2.304 7.087,0 -0.653,-2.934 -7.075,0 -0.613,-2.833 7.975,0 -0.71,-3.301 -12.442,0 3.092,14.485 11.839,0 z m -15.987,-10.947 -0.742,-3.538 -11.679,0 3.073,14.485 4.515,0 -2.351,-10.947 7.184,0 z m -12.304,10.947 -3.113,-14.485 -4.494,0 1.258,5.888 -4.854,0 -1.234,-5.888 -4.537,0 3.113,14.485 4.496,0 -1.096,-5.12 4.84,0 1.136,5.12 4.485,0 z m -17.209,-4.752 -4.111,-0.466 0,0.078 c 0,0.705 -0.209,1.231 -0.631,1.571 -0.422,0.344 -0.887,0.516 -1.396,0.516 -0.658,0 -1.299,-0.243 -1.926,-0.728 -0.624,-0.483 -1.126,-1.221 -1.508,-2.216 -0.377,-0.995 -0.567,-1.963 -0.567,-2.907 0,-0.718 0.196,-1.319 0.584,-1.801 0.388,-0.485 0.954,-0.728 1.7,-0.728 0.685,0 1.261,0.219 1.733,0.654 0.469,0.435 0.884,1.103 1.242,2.004 l 4.189,-0.652 c -0.436,-1.494 -1.279,-2.752 -2.527,-3.773 -1.248,-1.022 -2.873,-1.532 -4.877,-1.532 -2.087,0 -3.682,0.557 -4.785,1.67 -1.103,1.113 -1.656,2.594 -1.656,4.445 0,1.416 0.327,2.839 0.985,4.269 0.654,1.431 1.611,2.553 2.87,3.37 1.258,0.815 2.765,1.224 4.526,1.224 1.824,0 3.264,-0.459 4.32,-1.373 1.059,-0.917 1.669,-2.125 1.835,-3.625"
               id="path12948"
               style="fill:#004429;fill-opacity:1;fill-rule:nonzero;stroke:none" />
          </g>
          <g
             transform="translate(414.9054,88.4081)"
             id="g12950">
            <path
               d="m 0,0 0,-0.601 -25.24,0.017 c -2.584,0.002 -4.418,-1.089 -4.418,-2.997 l 0.006,-18.893 c 0.001,-2.981 3.245,-4.54 5.16,-4.54 l 168.698,0 0,-0.476 -168.101,0.016 c -4.084,0 -6.22,2.434 -6.22,4.827 l 0,19.034 c 0,2.095 1.51,3.613 4.521,3.613 L 0,0 z"
               id="path12952"
               style="fill:#004429;fill-opacity:1;fill-rule:evenodd;stroke:none" />
          </g>
          <g
             transform="translate(414.9054,95.2069)"
             id="g12954">
            <path
               d="m 0,0 0,-4.713 -25.404,0 c -4.236,0 -6.788,-1.468 -6.788,-5.263 l 0,-18.489 c 0,-5.678 2.863,-7.879 10.27,-7.879 l 166.128,0 0,-2.17 -166.494,0 c -6.446,0 -11.358,2.681 -11.358,8.538 l 0,21.785 c 0,5.35 4.313,8.191 10.506,8.191 L 0,0 z"
               id="path12956"
               style="fill:#004429;fill-opacity:1;fill-rule:evenodd;stroke:none" />
          </g>
        </g>
      </g>
    </g>
  </g>
</svg>
